<svg xmlns="http://www.w3.org/2000/svg" viewBox="0 0 261.3 96" role="img" aria-labelledby="t d"><title id="t">ochudi</title><desc id="d">Centroid mark beside the ochudi wordmark in Newsreader italic, outlined</desc><g transform="translate(0,-0.5) scale(0.98)"><circle cx="46" cy="52" r="6" fill="currentColor"/><circle cx="46" cy="52" r="12" fill="none" stroke="currentColor" stroke-width="3.4"/><circle cx="24" cy="30" r="4" fill="currentColor"/><circle cx="58" cy="20" r="3.6" fill="currentColor"/><circle cx="78" cy="38" r="4.2" fill="currentColor"/><circle cx="72" cy="70" r="3.8" fill="currentColor"/><circle cx="34" cy="76" r="4" fill="currentColor"/></g><path d="M112.56664453125 37.8151484375Q115.201310546875 37.8151484375 116.99153320312502 38.9191484375Q118.78175585937501 40.0231484375 119.7026455078125 42.1155927734375Q120.62353515625 44.208037109375 120.62353515625 47.20892578125Q120.62353515625 51.475587890625 119.1764267578125 55.637359375Q117.729318359375 59.799130859375 115.22798925781251 63.187569335937496Q112.72666015625 66.5760078125 109.4875537109375 68.60800390624999Q106.248447265625 70.64 102.65733984375001 70.64Q100.054673828125 70.64 98.248451171875 69.536Q96.442228515625 68.432 95.5213388671875 66.3235556640625Q94.60044921875 64.215111328125 94.60044921875 61.24622265625Q94.60044921875 56.979560546875 96.0475576171875 52.8177890625Q97.494666015625 48.656017578125 99.9959951171875 45.267579101562504Q102.49732421875001 41.879140625 105.73643066406251 39.847144531249995Q108.975537109375 37.8151484375 112.56664453125 37.8151484375ZM102.746228515625 69.317326171875Q104.60222656250001 69.317326171875 106.47066796875 67.84355175781249Q108.339109375 66.36977734375 109.9959951171875 63.850671875Q111.652880859375 61.33156640625 112.9399892578125 58.142240234374995Q114.22709765625001 54.9529140625 114.97020703125 51.489810546875Q115.71331640625 48.02670703125 115.71331640625 44.6844921875Q115.71331640625 41.868490234375 114.9506484375 40.50315625Q114.18798046875 39.137822265625005 112.47775585937501 39.137822265625005Q110.6217578125 39.137822265625005 108.75331640625 40.6115966796875Q106.884875 42.08537109375 105.2279892578125 44.6044765625Q103.571103515625 47.123582031249995 102.2839951171875 50.312908203125Q100.99688671875 53.502234375 100.25377734375 56.965337890625Q99.51066796875 60.42844140625 99.51066796875 63.77065625Q99.51066796875 66.579546875 100.27333593750001 67.9484365234375Q101.03600390625 69.317326171875 102.746228515625 69.317326171875ZM139.13374609375 39.240935546875Q136.67686328125 39.240935546875 134.56309082031248 41.2053759765625Q132.44931835937498 43.16981640625 130.8599892578125 46.336032226562494Q129.27066015625 49.502248046874996 128.37644042968748 53.20357421875Q127.482220703125 56.904900390625 127.482220703125 60.403560546875Q127.482220703125 63.7742265625 128.58088671874998 65.20000390625Q129.679552734375 66.62578125 131.876884765625 66.62578125Q133.5124375 66.62578125 135.1959892578125 65.83289453124999Q136.879541015625 65.0400078125 138.58442578125 63.18756835937499Q140.289310546875 61.33512890625 141.97108398437499 58.156470703125L142.62887109374998 58.206248046875004Q140.715984375 62.999126953125 138.72309863281248 65.71023242187499Q136.73021289062498 68.421337890625 134.61821582031249 69.5306689453125Q132.50621875 70.64 130.138220703125 70.64Q126.3764453125 70.64 124.3106689453125 68.4924453125Q122.24489257812499 66.344890625 122.24489257812499 62.17066796875Q122.24489257812499 57.38133984375 123.71333496093749 52.995568359375Q125.18177734375 48.609796875 127.73288476562499 45.1911357421875Q130.2839921875 41.772474609374996 133.5942099609375 39.7938115234375Q136.904427734375 37.8151484375 140.555978515625 37.8151484375Q143.67775390625 37.8151484375 145.110642578125 39.09692578125Q146.54353125 40.378703125 146.54353125 42.202701171875Q146.54353125 43.624921875 145.6208662109375 44.680917968749995Q144.69820117187498 45.7369140625 143.0555390625 45.744025390625Q141.72932421874998 45.751136718750004 141.178212890625 44.9831376953125Q140.6271015625 44.215138671874996 140.893759765625 42.401814453125Q141.16041796874998 40.588490234375 140.7301923828125 39.914712890625Q140.299966796875 39.240935546875 139.13374609375 39.240935546875ZM153.697310546875 55.301396484375 148.819111328125 70.0H143.816451171875L157.185330078125 28.552896484374997Q156.609330078125 28.13333984375 155.8786650390625 27.6515625Q155.148 27.16978515625 154.31777929687502 26.627564453125Q153.48755859375 26.08534375 152.55955859375 25.566234375L152.641337890625 25.239119140625L163.489318359375 22.974236328125002H163.727544921875L154.788876953125 51.653357421875L154.323099609375 51.639134765625Q156.861755859375 47.5680390625 158.9399736328125 44.894265625Q161.01819140625 42.2204921875 162.8084130859375 40.6791572265625Q164.598634765625 39.137822265625005 166.23419238281252 38.48715234375Q167.86975 37.836482421875 169.4910859375 37.836482421875Q172.3461953125 37.836482421875 173.50352734375 39.121814453125Q174.660859375 40.407146484375 174.660859375 42.280923828125Q174.660859375 43.354701171875 174.315970703125 44.652478515625Q173.97108203125 45.950255859375 172.904419921875 48.5600234375L165.348875 67.304892578125L164.815546875 66.320001953125Q165.796880859375 66.49422265625 167.275990234375 66.0088896484375Q168.755099609375 65.523556640625 170.7657607421875 64.1244501953125Q172.77642187499998 62.72534375 175.275966796875 60.172466796875L175.7133046875 60.567138671875Q173.050197265625 64.21157421875 170.747978515625 66.42845703124999Q168.44575976562498 68.64533984375 166.52220703125 69.642669921875Q164.598654296875 70.64 163.009322265625 70.64Q160.9542109375 70.64 160.25732421875 69.873779296875Q159.5604375 69.10755859375 160.339103515625 67.191115234375L167.987095703125 48.38223828125Q168.740869140625 46.540470703124996 169.0413125 45.6640283203125Q169.34175585937498 44.7875859375 169.34175585937498 44.218697265624996Q169.34175585937498 43.2444765625 168.6679794921875 42.71469921875Q167.994203125 42.184921875 166.50087109375 42.184921875Q164.6164296875 42.184921875 162.61643066406248 43.5093662109375Q160.616431640625 44.833810546875 158.7995419921875 46.901368164062504Q156.98265234375 48.96892578125 155.640427734375 51.214265624999996Q154.298203125 53.45960546875 153.697310546875 55.301396484375ZM193.91421484375 68.1831171875 197.028884765625 58.174216796875H197.302662109375Q195.034216796875 61.82933203125 193.2173271484375 64.247111328125Q191.4004375 66.664890625 189.8377705078125 68.06577929687501Q188.275103515625 69.46666796875 186.84221484375 70.053333984375Q185.409326171875 70.64 183.901771484375 70.64Q181.146220703125 70.64 180.004888671875 69.3493359375Q178.863556640625 68.058671875 178.863556640625 66.138673828125Q178.863556640625 65.18933984375 179.11244628906252 64.0746708984375Q179.3613359375 62.960001953125 179.809337890625 61.772441406249996L187.5711015625 41.150255859375L188.35332421875 42.263146484375Q187.66354296875 41.975148437499996 186.2768759765625 42.378705078124995Q184.890208984375 42.78226171875 182.863546875 44.2329248046875Q180.836884765625 45.683587890625 178.20933984375 48.599130859374995L177.75066796875 48.2115703125Q180.413775390625 44.481798828125 182.6537724609375 42.188470703125006Q184.89376953125 39.895142578125004 186.813767578125 38.8551455078125Q188.733765625 37.8151484375 190.394208984375 37.8151484375Q192.16131640625 37.8151484375 192.84753808593752 38.552923828125Q193.533759765625 39.29069921875 192.865318359375 40.993802734374995L184.9399921875 61.441791015625Q184.591548828125 62.3377890625 184.4102158203125 63.059565429687495Q184.2288828125 63.781341796875 184.2288828125 64.3040078125Q184.2288828125 65.363560546875 184.92576953125 65.813337890625Q185.62265625 66.263115234375 186.99509765625 66.263115234375Q188.388875 66.263115234375 190.0208759765625 65.1928916015625Q191.652876953125 64.12266796875 193.23687890625 62.39644140625Q194.820880859375 60.67021484375 196.06355078125 58.6542060546875Q197.306220703125 56.638197265624996 197.9213359375 54.771515625L203.354197265625 38.4551484375H208.371080078125L198.8173203125 67.265779296875L198.376435546875 66.288001953125Q199.283103515625 66.5404453125 200.7053251953125 66.0373349609375Q202.127546875 65.534224609375 203.988876953125 64.1031181640625Q205.85020703125 62.67201171875 208.029755859375 60.172466796875L208.45287109375 60.57425Q204.66265234375 66.259568359375 201.67065625 68.4497841796875Q198.67866015625 70.64 196.410216796875 70.64Q194.799548828125 70.64 194.1791044921875 69.9964462890625Q193.55866015625 69.352892578125 193.91421484375 68.1831171875ZM233.92486132812502 43.827580078124996Q233.17108789062502 41.74048046875 232.03331250000002 40.9138154296875Q230.895537109375 40.087150390625 229.34531640625 40.087150390625Q227.002205078125 40.087150390625 224.73198437500002 41.7298154296875Q222.46176367187502 43.37248046875 220.45998828125002 46.0444775390625Q218.45821289062502 48.716474609375 216.90799316406253 51.804470703125Q215.35777343750001 54.892466796875 214.4831083984375 57.856017578125Q213.608443359375 60.819568359375 213.608443359375 63.016896484374996Q213.608443359375 64.922669921875 214.4635537109375 65.7137802734375Q215.3186640625 66.504890625 216.627107421875 66.504890625Q217.405775390625 66.504890625 218.4066669921875 66.1013330078125Q219.40755859375 65.697775390625 220.573783203125 64.8479951171875Q221.7400078125 63.99821484375 223.0448974609375 62.686212890625Q224.349787109375 61.374210937499996 225.7560068359375 59.5715439453125Q227.1622265625 57.768876953125 228.61644140625 55.436435546875L237.249322265625 28.552896484374997Q236.67332226562502 28.13333984375 235.94265722656252 27.6515625Q235.21199218750002 27.16978515625 234.381771484375 26.627564453125Q233.55155078125 26.08534375 232.62355078125 25.566234375L232.705330078125 25.239119140625L243.55331054687503 22.974236328125002H243.791537109375L229.8253203125 67.32978125L229.057322265625 66.312890625Q229.9391015625 66.547556640625 231.373767578125 66.056890625Q232.80843359375 65.566224609375 234.769318359375 64.1440068359375Q236.730203125 62.7217890625 239.158638671875 60.172466796875L239.58175390625001 60.57425Q235.60309179687502 65.95734765625 232.56842968750001 68.298673828125Q229.533767578125 70.64 227.215546875 70.64Q225.565771484375 70.64 225.0288818359375 69.8773349609375Q224.49199218750002 69.114669921875 225.035990234375 67.390232421875L228.563099609375 56.41423828125H229.02176953125002Q226.09199609375 60.869341796875 223.800443359375 63.676449218749994Q221.50889062500002 66.483556640625 219.718669921875 67.98400000000001Q217.92844921875002 69.484443359375 216.5240048828125 70.0515546875Q215.119560546875 70.618666015625 213.94622656250002 70.618666015625Q212.26800390625002 70.618666015625 210.95067089843752 69.94133300781249Q209.633337890625 69.264 208.8920048828125 67.9022216796875Q208.150671875 66.540443359375 208.150671875 64.49244140625Q208.150671875 61.512890625 209.26889257812502 57.950229492187496Q210.38711328125 54.387568359374995 212.340888671875 50.8657958984375Q214.2946640625 47.3440234375 216.840439453125 44.4178056640625Q219.38621484375 41.491587890625 222.26976855468752 39.720923828124995Q225.153322265625 37.950259765625 228.11509960937502 37.950259765625Q230.09554296875 37.950259765625 231.69376171875 39.1164775390625Q233.29198046875 40.282695312499996 234.38353515625002 42.590242187499996ZM240.972 67.461345703125 250.66087695312498 41.292482421875 251.339990234375 42.195591796875Q250.44043359375 42.014259765625 249.087544921875 42.4960380859375Q247.73465625 42.97781640625 245.853771484375 44.396479492187495Q243.97288671875 45.815142578125 241.448453125 48.4746875L241.01111523437498 48.09423828125Q243.64222265625 44.36091015625 245.83066406249998 42.1049150390625Q248.01910546874998 39.848919921874995 249.892880859375 38.8320341796875Q251.76665624999998 37.8151484375 253.405765625 37.8151484375Q255.19420507812498 37.8151484375 255.71153906249998 38.652478515625Q256.228873046875 39.48980859375 255.66709765625 40.993802734374995L245.978220703125 67.304892578125L245.26 66.138669921875Q246.04222460937498 66.49066796875 247.302669921875 66.1617783203125Q248.563115234375 65.832888671875 250.53644433593752 64.4266708984375Q252.5097734375 63.020453125 255.36131640625 60.172466796875L255.784431640625 60.57425Q253.146212890625 64.168908203125 250.909771484375 66.3946796875Q248.673330078125 68.620451171875 246.8155546875 69.6302255859375Q244.957779296875 70.64 243.39333593749998 70.64Q241.53378125 70.64 240.94355859375 69.9057802734375Q240.3533359375 69.171560546875 240.972 67.461345703125ZM253.028876953125 27.379564453125Q253.028876953125 26.355564453124998 253.51776562499998 25.489787109374998Q254.00665429687498 24.624009765624997 254.8848759765625 24.106676757812497Q255.76309765625 23.589343749999998 256.975541015625 23.589343749999998Q258.78176171875 23.589343749999998 259.8022060546875 24.716454101562498Q260.822650390625 25.843564453124998 260.822650390625 27.379564453125Q260.822650390625 28.428453124999997 260.358650390625 29.3440078125Q259.894650390625 30.2595625 259.0413173828125 30.8266728515625Q258.187984375 31.393783203124997 256.975541015625 31.393783203124997Q255.1693203125 31.393783203124997 254.0990986328125 30.167118164062497Q253.028876953125 28.940453124999998 253.028876953125 27.379564453125Z" fill="currentColor"/></svg>